<?xml version="1.0" encoding="UTF-8" standalone="no"?>
<!-- Created with Inkscape (http://www.inkscape.org/) -->

<svg
   xmlns:osb="http://www.openswatchbook.org/uri/2009/osb"
   xmlns:dc="http://purl.org/dc/elements/1.1/"
   xmlns:cc="http://creativecommons.org/ns#"
   xmlns:rdf="http://www.w3.org/1999/02/22-rdf-syntax-ns#"
   xmlns:svg="http://www.w3.org/2000/svg"
   xmlns="http://www.w3.org/2000/svg"
   xmlns:sodipodi="http://sodipodi.sourceforge.net/DTD/sodipodi-0.dtd"
   xmlns:inkscape="http://www.inkscape.org/namespaces/inkscape"
   width="512"
   height="512"
   id="svg2997"
   version="1.1"
   inkscape:version="0.91 r13725"
   sodipodi:docname="circle_cloud_icon.svg"
   inkscape:export-filename="/home/justin/ownCloud/Images/Vector/Icons/PNGS/circle_cloud_icon.png"
   inkscape:export-xdpi="90"
   inkscape:export-ydpi="90">
  <defs
     id="defs2999">
    <linearGradient
       id="linearGradient5580"
       osb:paint="solid">
      <stop
         style="stop-color:#000000;stop-opacity:1;"
         offset="0"
         id="stop5582" />
    </linearGradient>
    <clipPath
       clipPathUnits="userSpaceOnUse"
       id="clipPath3813">
      <rect
         ry="70"
         rx="70"
         y="378.17188"
         x="494.96875"
         height="400"
         width="400"
         id="rect3815"
         style="fill:#0068e0" />
    </clipPath>
    <clipPath
       clipPathUnits="userSpaceOnUse"
       id="clipPath3878">
      <circle
         transform="matrix(0.86642601,0,0,0.86642601,255.73404,56.150204)"
         id="path3880"
         style="fill:#0068e0;fill-opacity:1;stroke:none"
         cx="510.83334"
         cy="602.5"
         r="230.83333" />
    </clipPath>
    <clipPath
       clipPathUnits="userSpaceOnUse"
       id="clipPath3884">
      <circle
         transform="matrix(0.86642602,0,0,0.86642602,252.60905,56.150203)"
         id="path3886"
         style="fill:#0068e0;fill-opacity:1;stroke:none"
         cx="510.83334"
         cy="602.5"
         r="230.83333" />
    </clipPath>
    <mask
       maskUnits="userSpaceOnUse"
       id="mask5627">
      <circle
         id="circle5629"
         style="fill:#394b4d;fill-opacity:1;stroke:none"
         cx="798.33331"
         cy="478.17188"
         r="256" />
    </mask>
    <mask
       maskUnits="userSpaceOnUse"
       id="mask4935">
      <circle
         id="circle4937"
         style="fill:#00b8d4;fill-opacity:1;stroke:none"
         cx="798.33331"
         cy="478.17188"
         r="256" />
    </mask>
    <mask
       maskUnits="userSpaceOnUse"
       id="mask4225">
      <circle
         id="circle4227"
         style="fill:#80cbc4;fill-opacity:1;stroke:none"
         cx="300"
         cy="300"
         r="256" />
    </mask>
    <mask
       maskUnits="userSpaceOnUse"
       id="mask4239">
      <circle
         id="circle4241"
         style="fill:#80cbc4;fill-opacity:1;stroke:none"
         cx="798.33331"
         cy="478.17188"
         r="256" />
    </mask>
  </defs>
  <sodipodi:namedview
     id="base"
     pagecolor="#ffffff"
     bordercolor="#666666"
     borderopacity="1.0"
     inkscape:pageopacity="0"
     inkscape:pageshadow="2"
     inkscape:zoom="1"
     inkscape:cx="271.16381"
     inkscape:cy="224.94632"
     inkscape:current-layer="layer1"
     inkscape:document-units="px"
     showgrid="false"
     showguides="true"
     inkscape:window-width="1600"
     inkscape:window-height="875"
     inkscape:window-x="0"
     inkscape:window-y="1"
     inkscape:window-maximized="1"
     inkscape:guide-bbox="true"
     fit-margin-top="0"
     fit-margin-left="0"
     fit-margin-right="0"
     fit-margin-bottom="0">
    <inkscape:grid
       type="xygrid"
       id="grid4820" />
  </sodipodi:namedview>
  <metadata
     id="metadata3002">
    <rdf:RDF>
      <cc:Work
         rdf:about="">
        <dc:format>image/svg+xml</dc:format>
        <dc:type
           rdf:resource="http://purl.org/dc/dcmitype/StillImage" />
        <dc:title></dc:title>
        <dc:title />
      </cc:Work>
    </rdf:RDF>
  </metadata>
  <g
     id="layer1"
     inkscape:label="Circle"
     inkscape:groupmode="layer"
     transform="translate(-498.33334,-266.17188)">
    <circle
       style="fill:#80cbc4;fill-opacity:1;stroke:none"
       id="path3874"
       cx="755.15027"
       cy="522.36328"
       r="251.00066" />
    <path
       style="fill:#4db6ac;fill-opacity:1;fill-rule:evenodd;stroke:none;stroke-width:1px;stroke-linecap:butt;stroke-linejoin:miter;stroke-opacity:1"
       d="M 185.60938,372.0625 405.47045,591.92357 623.33763,374.05638 421.8122,172.53095 375.4737,242.20397 357.08893,223.11208 315.36963,221.69787 313.95541,214.6268 298.25,223.25 287,234.5 l -2.75,4 -14,-5.75 -17.75,-1 -22.5,8.5 -15,16.75 -6,15 -0.25,12 -14.25,6.5 -14,12.75 -8.75,18.75 -1,18.75 3.5,12.25 z"
       id="path4178"
       inkscape:connector-curvature="0"
       transform="matrix(0.9804713,0,0,0.9804713,461.00884,228.22188)"
       mask="url(#mask4225)" />
    <path
       style="fill:#000000;fill-opacity:0.09947647;fill-rule:evenodd;stroke:none;stroke-width:1px;stroke-linecap:butt;stroke-linejoin:miter;stroke-opacity:1"
       d="M 684.30242,549.77639 893.95958,759.43355 1048.4624,604.93072 914.81924,471.28754 c 0,0 9.54594,15.55635 10.6066,21.03642 1.06066,5.48008 3.35875,14.14214 1.76776,23.5113 -1.59099,9.36917 -6.71751,24.57196 -19.09188,35.7089 -12.37437,11.13693 -30.22881,13.25825 -30.22881,13.25825 l -157.68482,0.35355 c 0,0 -9.26572,-0.11263 -17.89886,-3.56034 -9.54285,-3.81101 -17.98681,-11.81923 -17.98681,-11.81923 z"
       id="path4235"
       inkscape:connector-curvature="0"
       sodipodi:nodetypes="ccccsssccsc"
       mask="url(#mask4239)"
       transform="matrix(0.9804713,0,0,0.9804713,-27.592704,53.529463)" />
    <path
       sodipodi:type="star"
       style="display:inline;opacity:1;fill:#ffc107;fill-opacity:1;stroke:none;stroke-width:5;stroke-linecap:butt;stroke-linejoin:round;stroke-miterlimit:4;stroke-dasharray:none;stroke-opacity:1"
       id="path4170"
       sodipodi:sides="9"
       sodipodi:cx="823.86618"
       sodipodi:cy="471.35541"
       sodipodi:r1="58.190586"
       sodipodi:r2="89.523972"
       sodipodi:arg1="0.78539816"
       sodipodi:arg2="1.134464"
       inkscape:flatsided="false"
       inkscape:rounded="0"
       inkscape:randomized="0"
       d="m 865.01311,512.50237 -3.31249,39.98931 -32.76283,-23.16712 -28.24215,28.50436 -10.20624,-38.80657 -39.95699,3.6819 17.12595,-36.28801 -32.97552,-22.86336 36.44473,-16.78988 -10.56443,-38.7106 38.71061,10.56443 16.78987,-36.44473 22.86336,32.97552 36.28801,-17.12596 -3.6819,39.957 38.80658,10.20624 -28.50437,28.24215 23.16712,32.76282 z" />
    <path
       style="display:inline;opacity:0.75800003;fill:#fafafa;fill-opacity:1;stroke:#00796b;stroke-width:13.46285152;stroke-linecap:round;stroke-linejoin:miter;stroke-miterlimit:4;stroke-dasharray:none;stroke-opacity:1"
       d="m 787.18715,443.02224 a 50.741409,50.741409 0 0 0 -45.48475,28.39297 42.891574,42.891574 0 0 0 -27.11717,-9.6969 42.891574,42.891574 0 0 0 -42.88996,42.8925 42.891574,42.891574 0 0 0 0.5678,6.8245 45.467516,45.467516 0 0 0 -37.7155,44.80232 45.467516,45.467516 0 0 0 44.92713,45.43894 45.467516,45.467516 0 0 0 0.53977,0.0281 45.467516,45.467516 0 0 0 0.78696,-0.0281 l 145.00527,0 a 49.38565,49.38565 0 0 0 0.56023,0.0281 49.38565,49.38565 0 0 0 0.78436,-0.0281 l 0.36401,0 0,-0.013 a 49.38565,49.38565 0 0 0 48.23757,-49.34518 49.38565,49.38565 0 0 0 -38.8996,-48.22733 50.741409,50.741409 0 0 0 1.07458,-10.32842 50.741409,50.741409 0 0 0 -50.7407,-50.74067 z"
       id="path4986"
       inkscape:connector-curvature="0" />
  </g>
</svg>
