<?xml version="1.0" encoding="UTF-8" standalone="no"?>
<!-- Created with Inkscape (http://www.inkscape.org/) -->

<svg
   xmlns:osb="http://www.openswatchbook.org/uri/2009/osb"
   xmlns:dc="http://purl.org/dc/elements/1.1/"
   xmlns:cc="http://creativecommons.org/ns#"
   xmlns:rdf="http://www.w3.org/1999/02/22-rdf-syntax-ns#"
   xmlns:svg="http://www.w3.org/2000/svg"
   xmlns="http://www.w3.org/2000/svg"
   xmlns:sodipodi="http://sodipodi.sourceforge.net/DTD/sodipodi-0.dtd"
   xmlns:inkscape="http://www.inkscape.org/namespaces/inkscape"
   width="512"
   height="512"
   id="svg2997"
   version="1.1"
   inkscape:version="0.91 r13725"
   sodipodi:docname="circle_smile_icon.svg"
   inkscape:export-filename="/home/justin/ownCloud/Images/Vector/Icons/PNGS/circle_smile_icon_512x512.png"
   inkscape:export-xdpi="90"
   inkscape:export-ydpi="90">
  <defs
     id="defs2999">
    <inkscape:path-effect
       effect="skeletal"
       id="path-effect5557"
       is_visible="true"
       pattern="M 0,0 1,0"
       copytype="single_stretched"
       prop_scale="1"
       scale_y_rel="false"
       spacing="0"
       normal_offset="0"
       tang_offset="0"
       prop_units="false"
       vertical_pattern="false"
       fuse_tolerance="0" />
    <linearGradient
       id="linearGradient5580"
       osb:paint="solid">
      <stop
         style="stop-color:#000000;stop-opacity:1;"
         offset="0"
         id="stop5582" />
    </linearGradient>
    <clipPath
       clipPathUnits="userSpaceOnUse"
       id="clipPath3813">
      <rect
         ry="70"
         rx="70"
         y="378.17188"
         x="494.96875"
         height="400"
         width="400"
         id="rect3815"
         style="fill:#0068e0" />
    </clipPath>
    <clipPath
       clipPathUnits="userSpaceOnUse"
       id="clipPath3878">
      <circle
         transform="matrix(0.86642601,0,0,0.86642601,255.73404,56.150204)"
         id="path3880"
         style="fill:#0068e0;fill-opacity:1;stroke:none"
         cx="510.83334"
         cy="602.5"
         r="230.83333" />
    </clipPath>
    <clipPath
       clipPathUnits="userSpaceOnUse"
       id="clipPath3884">
      <circle
         transform="matrix(0.86642602,0,0,0.86642602,252.60905,56.150203)"
         id="path3886"
         style="fill:#0068e0;fill-opacity:1;stroke:none"
         cx="510.83334"
         cy="602.5"
         r="230.83333" />
    </clipPath>
    <mask
       maskUnits="userSpaceOnUse"
       id="mask5627">
      <circle
         id="circle5629"
         style="fill:#394b4d;fill-opacity:1;stroke:none"
         cx="798.33331"
         cy="478.17188"
         r="256" />
    </mask>
    <mask
       maskUnits="userSpaceOnUse"
       id="mask4935">
      <circle
         id="circle4937"
         style="fill:#00b8d4;fill-opacity:1;stroke:none"
         cx="798.33331"
         cy="478.17188"
         r="256" />
    </mask>
    <mask
       maskUnits="userSpaceOnUse"
       id="mask4350">
      <circle
         id="circle4352"
         style="fill:#8d6e63;fill-opacity:1;stroke:none"
         cx="798.33331"
         cy="478.17188"
         r="256" />
    </mask>
    <mask
       maskUnits="userSpaceOnUse"
       id="mask4842">
      <circle
         id="circle4844"
         style="fill:#80deea;fill-opacity:1;stroke:none"
         cx="300"
         cy="300"
         r="256" />
    </mask>
    <mask
       maskUnits="userSpaceOnUse"
       id="mask4850">
      <circle
         id="circle4852"
         style="fill:#80deea;fill-opacity:1;stroke:none"
         cx="798.33331"
         cy="478.17188"
         r="256" />
    </mask>
    <mask
       maskUnits="userSpaceOnUse"
       id="mask5628">
      <circle
         r="256"
         cy="300"
         cx="299.99997"
         id="circle5630"
         style="fill:#80deea;fill-opacity:1;stroke:none" />
    </mask>
    <mask
       maskUnits="userSpaceOnUse"
       id="mask6369">
      <circle
         r="256"
         cy="300"
         cx="299.99997"
         id="circle6371"
         style="fill:#80deea;fill-opacity:1;stroke:none" />
    </mask>
    <mask
       maskUnits="userSpaceOnUse"
       id="mask7080">
      <circle
         r="256"
         cy="300"
         cx="299.99997"
         id="circle7082"
         style="fill:#7cb342;fill-opacity:1;stroke:none" />
    </mask>
    <mask
       maskUnits="userSpaceOnUse"
       id="mask5978">
      <circle
         r="256"
         cy="478.17188"
         cx="798.33331"
         id="circle5980"
         style="fill:#558b2f;fill-opacity:1;stroke:none" />
    </mask>
  </defs>
  <sodipodi:namedview
     id="base"
     pagecolor="#ffffff"
     bordercolor="#666666"
     borderopacity="1.0"
     inkscape:pageopacity="0"
     inkscape:pageshadow="2"
     inkscape:zoom="1"
     inkscape:cx="278.49703"
     inkscape:cy="233.62185"
     inkscape:current-layer="layer1"
     inkscape:document-units="px"
     showgrid="false"
     showguides="true"
     inkscape:window-width="1600"
     inkscape:window-height="875"
     inkscape:window-x="0"
     inkscape:window-y="1"
     inkscape:window-maximized="1"
     inkscape:guide-bbox="true"
     fit-margin-top="0"
     fit-margin-left="0"
     fit-margin-right="0"
     fit-margin-bottom="0">
    <inkscape:grid
       type="xygrid"
       id="grid4820" />
  </sodipodi:namedview>
  <metadata
     id="metadata3002">
    <rdf:RDF>
      <cc:Work
         rdf:about="">
        <dc:format>image/svg+xml</dc:format>
        <dc:type
           rdf:resource="http://purl.org/dc/dcmitype/StillImage" />
        <dc:title></dc:title>
        <dc:title />
      </cc:Work>
    </rdf:RDF>
  </metadata>
  <g
     id="layer1"
     inkscape:label="Circle"
     inkscape:groupmode="layer"
     transform="translate(-498.33334,-266.17188)"
     style="display:inline;opacity:1">
    <g
       id="g4293"
       transform="matrix(0.90887668,0,0,0.90887668,30.961247,88.878192)"
       inkscape:export-filename="/home/justin/ownCloud/Images/Vector/Icons/PNGS/circle_smile_icon_512x512.png"
       inkscape:export-xdpi="90"
       inkscape:export-ydpi="90">
      <circle
         r="269.5517"
         cy="475.67062"
         cx="795.88501"
         id="path3874"
         style="fill:#558b2f;fill-opacity:1;stroke:none" />
      <circle
         r="156.35307"
         cy="477.35632"
         cx="795.68842"
         id="path6000"
         style="opacity:1;fill:#689f38;fill-opacity:1;stroke:none;stroke-width:2;stroke-linecap:round;stroke-linejoin:round;stroke-miterlimit:4;stroke-dasharray:none;stroke-dashoffset:20;stroke-opacity:1" />
      <g
         style="fill:#33691e"
         transform="matrix(1.0529363,0,0,1.0529363,-40.49738,-23.602151)"
         id="g5955">
        <path
           sodipodi:nodetypes="ccccccscssscscsccscscsccscccccscscsscccccccccccccccccccccccccccccsccsssscscccscscsccccccccc"
           inkscape:connector-curvature="0"
           d="m 829.10586,321.91075 c 4.05462,1.10728 8.11866,2.13743 12.1027,3.48177 5.76265,1.88385 11.48526,3.86599 17.12663,6.08623 3.18672,1.21247 6.26194,2.67031 9.32778,4.15198 2.77376,1.29902 5.35777,2.95404 7.96976,4.54344 5.00893,3.13133 9.74335,6.68635 14.42501,10.28249 4.82128,3.98643 17.29608,13.62847 21.55922,18.21829 3.08646,3.32297 5.72327,6.61771 8.61777,10.11577 1.47276,1.91583 3.0643,3.74596 4.41829,5.74751 3.51847,5.20121 6.95311,11.73026 9.76184,17.27035 2.28859,4.51412 6.98138,14.3297 8.98992,19.1099 1.27457,3.03339 2.36944,6.13921 3.55416,9.20881 4.22512,11.88031 6.70584,24.33366 7.74983,36.89025 0.5352,6.43722 0.4926,10.52907 0.58588,16.90624 -0.10288,7.57215 -0.11766,15.1914 -1.61733,22.64412 -0.89466,4.44607 -1.54305,6.44216 -2.77347,10.84273 -2.83214,9.53229 -6.43652,18.81721 -10.74961,27.77256 -3.20276,6.18095 -6.6256,12.34357 -10.85948,17.89467 -1.22039,1.60008 -2.53954,3.12236 -3.80931,4.68354 -7.99881,8.99165 -16.34902,17.82039 -25.72977,25.4034 -1.91599,1.54881 -3.92153,2.98344 -5.88229,4.47516 -5.35524,3.85769 -10.89771,7.45962 -16.61085,10.76503 -9.88113,5.71686 -18.94525,11.48182 -29.22011,15.97386 -8.39863,3.54904 -17.1771,6.00876 -26.08195,7.88543 -8.12201,1.34009 -16.31025,2.42763 -24.5622,2.15044 -6.71447,-0.22555 -12.28556,-0.926 -18.99097,-1.61925 -14.90097,-1.81849 -29.68403,-4.73787 -44.13619,-8.80088 -7.31152,-2.07521 -13.86486,-5.84704 -20.3437,-9.70609 -7.71289,-4.32202 -14.47076,-9.94265 -20.92019,-15.93333 -7.64486,-7.24611 -14.92913,-14.86293 -22.0521,-22.61939 -4.86815,-7.08463 -9.58045,-14.31747 -13.30376,-22.08497 -0.9521,-1.98627 -1.78725,-4.02651 -2.68088,-6.03976 -4.43914,-10.99968 -8.4408,-22.25626 -10.87088,-33.89153 -0.47622,-2.28017 -0.82495,-4.58512 -1.23743,-6.87768 -1.43249,-10.02876 -1.66509,-20.1551 -1.38843,-30.26645 0.0615,-2.24843 0.10114,-4.50037 0.29251,-6.74149 0.20683,-2.42223 0.60074,-4.82483 0.90111,-7.23725 2.47873,-15.32151 7.74648,-29.92063 13.43593,-44.28992 4.67384,-14.30292 14.72976,-25.56141 23.86713,-35.7329 5.24951,-5.87918 10.88561,-11.39102 16.82261,-16.5698 4.5919,-4.14722 9.96194,-7.89639 15.20908,-11.12344 10.17943,-7.15524 21.03386,-12.1212 32.13112,-17.40511 4.55213,-2.01394 23.21459,-6.0352 27.91386,-7.6757 3.36686,-1.19985 14.28217,-2.74821 17.74469,-3.63172 2.32217,-0.60082 11.4053,-1.40433 13.74968,-1.91097 2.14097,-0.46152 4.30213,-0.82503 6.46114,-1.19153 1.47552,-0.27784 2.96486,-0.46488 4.45211,-0.66472 1.29708,-0.17247 2.60008,-0.28915 3.89894,-0.44657 l 0.54757,-0.0687 -12.2281,5.56575 0,0 -0.51701,0.0504 c -28.42277,4.12631 -48.64998,9.16599 -56.79197,12.79764 -12.90513,5.9733 -23.30413,10.02868 -33.85891,18.13453 -6.24059,5.13603 -12.15117,10.655 -17.61709,16.61555 -5.49642,5.99409 -11.03058,12.02378 -15.50398,18.84364 -3.35899,5.21628 -6.21071,10.73737 -8.8065,16.36897 -6.26064,14.08566 -11.68056,28.60698 -13.92944,43.94003 -1.72808,14.52001 -2.33325,29.19829 0.004,43.7042 2.49716,13.8328 6.06414,27.47286 11.97014,40.28649 4.64348,9.54963 9.68149,18.99605 16.4947,27.20741 6.48377,8.13488 13.46268,15.88934 21.29067,22.76376 6.69315,5.61153 13.66396,10.86521 21.19568,15.31641 6.36468,3.712 12.92801,7.09785 19.94962,9.40591 13.85163,4.57856 28.1146,7.84917 42.64162,9.37474 3.32353,0.27807 6.64017,0.65687 9.9706,0.83419 11.55705,0.61532 23.12249,-0.34295 34.44251,-2.72912 8.8281,-2.05156 17.57085,-4.53285 25.86853,-8.2359 1.37506,-0.64438 2.76354,-1.26088 4.12519,-1.93314 1.26246,-0.62329 4.944,-2.69131 3.74539,-1.95262 -3.97341,2.44876 -8.05996,4.70912 -12.07629,7.08684 -1.75658,1.03992 3.54832,-2.0201 5.29692,-3.07337 5.66434,-3.4119 6.16427,-3.85935 11.73462,-7.62672 1.93701,-1.44174 3.91544,-2.82944 5.81103,-4.32521 9.36113,-7.38668 17.80337,-15.94341 25.58904,-24.94893 5.44645,-6.90211 10.45401,-14.13883 14.42796,-22.00602 4.4772,-8.89375 8.42451,-18.05736 11.27172,-27.61541 1.25591,-4.49575 1.78306,-6.06347 2.70453,-10.58979 1.52301,-7.48116 2.16566,-15.11949 2.52794,-22.73316 0.10426,-7.16095 0.28348,-9.57989 -0.22529,-16.87164 -0.86898,-12.45461 -3.30167,-24.75759 -7.35115,-36.57208 -1.13788,-3.05801 -2.19627,-6.14679 -3.41365,-9.17403 -5.93469,-14.75775 -13.411,-28.99747 -23.71939,-41.19318 -6.97131,-8.02829 -22.14961,-21.16573 -30.75348,-27.47501 -4.73175,-3.52871 -9.56269,-6.93011 -14.71107,-9.83219 -2.6219,-1.5236 -5.28415,-2.97112 -7.99315,-4.33449 -2.95909,-1.48471 -5.9719,-2.86647 -9.00785,-4.18643 -5.51136,-2.30031 -11.12587,-4.36722 -16.86161,-6.03943 -4.16358,-1.10863 -8.33256,-2.22738 -12.57735,-2.98667 l 17.08556,-11.83678 z"
           id="path5957"
           style="opacity:1;fill:#33691e;fill-opacity:1;stroke:none;stroke-width:2;stroke-linecap:round;stroke-linejoin:round;stroke-miterlimit:4;stroke-dasharray:none;stroke-dashoffset:20;stroke-opacity:1" />
        <path
           sodipodi:nodetypes="scccccccccccccccsccscccsccsssscsscccscccscccccccccccccccss"
           inkscape:connector-curvature="0"
           d="m 706.91785,513.96906 c 0.76069,-0.45102 4.278,-1.54329 4.72213,-0.77924 0.20754,0.35015 0.41301,0.70192 0.60353,1.06169 0.18844,0.33901 0.359,0.68758 0.53323,1.03401 0.40403,0.75626 0.7923,1.52065 1.19883,2.27548 0.84891,1.55906 1.78968,3.06476 2.73976,4.56342 0.80433,1.32134 1.65095,2.6163 2.42156,3.95783 0.97444,1.76316 2.03287,3.47574 3.10732,5.17899 1.33395,2.13422 2.84917,4.14063 4.39086,6.12666 1.45374,1.89182 3.00923,3.70308 4.60272,5.47782 1.25981,1.41824 2.58436,2.7766 3.93521,4.1077 1.22056,1.2104 2.47614,2.38574 3.73974,3.55097 2.15018,1.98909 4.46672,3.78322 6.81638,5.52756 2.6992,2.06244 5.58323,3.84942 8.50897,5.56714 2.80486,1.62102 5.70749,3.05479 8.66793,4.36615 2.88375,1.27832 5.84864,2.35315 8.84616,3.32913 3.26059,0.9473 6.52821,1.91788 9.86869,2.55095 2.99747,0.56806 4.47203,0.69512 7.50731,1.06331 5.92679,0.6241 11.88897,0.81945 17.84336,0.64503 3.29569,-0.20542 6.6137,-0.42853 9.85895,-1.07709 2.67679,-0.53496 3.77368,-0.90816 6.43805,-1.66749 5.41027,-1.55889 11.63506,-3.27341 16.68415,-5.73821 1.53126,-0.7803 1.89353,-0.95307 3.37175,-1.75062 0.52099,-0.28108 2.06482,-1.1585 1.5564,-0.85528 -9.17414,5.47147 -0.059,-0.0731 1.39249,-0.97575 4.0023,-2.53635 6.51138,-3.95747 10.38915,-6.67965 2.20196,-1.53657 5.3388,-3.54425 7.38077,-5.2876 5.79989,-4.95172 7.58943,-6.92424 11.07603,-10.48634 5.10777,-5.21838 9.95279,-14.0089 13.44518,-17.59694 1.48921,-1.53 5.83666,-0.9785 4.91394,0.94692 -0.5956,1.2428 -7.29863,11.53991 -12.18926,16.83479 -1.21822,1.2756 -2.13933,2.27881 -3.4179,3.47476 -2.43392,2.27666 -4.39438,3.69013 -7.54831,6.56246 -5.73039,5.21875 -12.88205,10.70864 -18.179,14.23499 -5.74682,3.6477 -11.57061,7.58518 -17.70584,10.54684 -4.9882,2.34758 -10.05765,3.35419 -15.38641,4.81413 -2.4686,0.70056 -4.54246,0.6076 -7.04558,1.12553 -3.26633,0.67585 -6.6095,0.85672 -9.9316,1.01982 -0.87037,0.0253 -1.74039,0.0704 -2.61111,0.0758 -5.01483,0.0308 -10.01637,-0.55473 -15.00166,-1.00799 -3.67519,-0.45621 -7.39357,-0.83801 -11.02523,-1.58458 -2.29824,-0.47245 -4.52111,-1.28497 -6.79135,-1.8644 -3.09841,-0.90039 -6.1802,-1.84787 -9.08444,-3.278 -2.9249,-1.38594 -5.84437,-2.79952 -8.6082,-4.49067 -2.95314,-1.74564 -5.90726,-3.52166 -8.66774,-5.56111 -2.33452,-1.80206 -4.63178,-3.65262 -6.89677,-5.54123 -1.33034,-1.13209 -2.65714,-2.26693 -3.8653,-3.53221 -1.30938,-1.37882 -2.60011,-2.77532 -3.86758,-4.1928 -1.57512,-1.81152 -3.12829,-3.64154 -4.60738,-5.53303 -1.52633,-2.02014 -3.02915,-4.06474 -4.43875,-6.16722 -1.10358,-1.69482 -2.15156,-3.42537 -3.21791,-5.14376 -0.80374,-1.31528 -1.54626,-2.66699 -2.37007,-3.97028 -0.92756,-1.52383 -1.89437,-3.0233 -2.81557,-4.55088 -0.44555,-0.73958 -0.89673,-1.47468 -1.30013,-2.23868 -0.1925,-0.33669 -0.38711,-0.67246 -0.56321,-1.01813 -0.193,-0.3572 -0.37319,-0.72127 -0.55393,-1.08477 -0.39932,-0.78906 -1.2493,-3.39452 -1.01278,-4.24717 0.35323,-1.27341 1.63454,-1.81762 2.14246,-2.11876 z"
           id="path5959"
           style="opacity:1;fill:#33691e;fill-opacity:1;stroke:none;stroke-width:2;stroke-linecap:round;stroke-linejoin:round;stroke-miterlimit:4;stroke-dasharray:none;stroke-dashoffset:20;stroke-opacity:1" />
        <path
           sodipodi:nodetypes="accccccscccccccaa"
           inkscape:connector-curvature="0"
           d="m 764.96954,422.29157 c 2.77302,-0.28169 2.7661,1.15204 2.42808,2.91046 -0.89902,3.60165 -1.42291,7.12174 -1.84861,10.61947 -0.18034,1.55456 -0.32472,3.10076 -0.52426,4.65973 -0.41043,1.9449 -0.83213,3.89075 -1.12072,5.80965 -0.1566,1.39803 -0.31447,2.79571 -0.53439,4.20813 -0.1688,1.1019 -0.31648,2.19929 -0.56755,3.31911 -0.49747,3.87645 -0.32444,6.39486 -1.90292,8.98075 -1.63604,2.68016 -9.63812,7.15429 -13.88156,7.1384 -1.1177,-1.98114 -0.31567,-4.98869 -0.15703,-7.24303 0.10306,-1.07964 0.3163,-2.18439 0.50241,-3.28287 0.24603,-1.45561 0.55611,-2.92455 0.86787,-4.39444 0.33384,-1.88751 0.53961,-3.74398 0.74901,-5.60278 0.32667,-1.64671 0.70926,-3.3053 1.05656,-4.95638 0.72728,-3.54041 1.37863,-7.06472 1.63134,-10.49878 0.23224,-1.69096 -0.15076,-3.66022 2.12945,-5.70429 2.43447,-2.18239 6.93133,-5.53239 11.17232,-5.96313 z"
           id="path5961"
           style="opacity:1;fill:#33691e;fill-opacity:1;stroke:none;stroke-width:2;stroke-linecap:round;stroke-linejoin:round;stroke-miterlimit:4;stroke-dasharray:none;stroke-dashoffset:20;stroke-opacity:1" />
        <path
           style="opacity:1;fill:#33691e;fill-opacity:1;stroke:none;stroke-width:2;stroke-linecap:round;stroke-linejoin:round;stroke-miterlimit:4;stroke-dasharray:none;stroke-dashoffset:20;stroke-opacity:1"
           id="path5963"
           d="m 851.94367,418.75604 c 2.77302,-0.28169 2.7661,1.15204 2.42808,2.91046 -0.89902,3.60165 -1.42291,7.12174 -1.84861,10.61947 -0.18034,1.55456 -0.32472,3.10076 -0.52426,4.65973 -0.41043,1.9449 -0.83213,3.89075 -1.12072,5.80965 -0.1566,1.39803 -0.31447,2.79571 -0.53439,4.20813 -0.1688,1.1019 -0.31648,2.19929 -0.56755,3.31911 -0.49747,3.87645 -0.32444,6.39486 -1.90292,8.98075 -1.63604,2.68016 -9.63812,7.15429 -13.88156,7.1384 -1.1177,-1.98114 -0.31567,-4.98869 -0.15703,-7.24303 0.10306,-1.07964 0.3163,-2.18439 0.50241,-3.28287 0.24603,-1.45561 0.55611,-2.92455 0.86787,-4.39444 0.33384,-1.88751 0.53961,-3.74398 0.74901,-5.60278 0.32667,-1.64671 0.70926,-3.3053 1.05656,-4.95638 0.72728,-3.54041 1.37863,-7.06472 1.63134,-10.49878 0.23224,-1.69096 -0.15076,-3.66022 2.12945,-5.70429 2.43447,-2.18239 6.93133,-5.53239 11.17232,-5.96313 z"
           inkscape:connector-curvature="0"
           sodipodi:nodetypes="accccccscccccccaa" />
      </g>
      <path
         transform="matrix(1.0529363,0,0,1.0529363,-44.709126,-27.813897)"
         mask="url(#mask5978)"
         inkscape:connector-curvature="0"
         id="path5969"
         d="m 673.33334,582.17188 246.5,246.5 226.99996,-227 -236.49996,-236.5 38,111 -9,56 -24.86766,40.93903 -26.16295,24.39519 -19.79899,14.14213 -32.88046,12.72792 -52.32591,3.88909 -37.83021,-8.13173 -48.79037,-30.05203 -23.34345,-7.9096 z"
         style="fill:#33691e;fill-opacity:1;fill-rule:evenodd;stroke:none;stroke-width:1px;stroke-linecap:butt;stroke-linejoin:miter;stroke-opacity:1" />
      <g
         transform="matrix(1.0529363,0,0,1.0529363,-44.709126,-27.813897)"
         id="g5949"
         style="display:inline;opacity:1">
        <path
           style="opacity:1;fill:#f9fbe7;fill-opacity:1;stroke:none;stroke-width:2;stroke-linecap:round;stroke-linejoin:round;stroke-miterlimit:4;stroke-dasharray:none;stroke-dashoffset:20;stroke-opacity:1"
           id="path5921"
           d="m 829.10586,321.91075 c 4.05462,1.10728 8.11866,2.13743 12.1027,3.48177 5.76265,1.88385 11.48526,3.86599 17.12663,6.08623 3.18672,1.21247 6.26194,2.67031 9.32778,4.15198 2.77376,1.29902 5.35777,2.95404 7.96976,4.54344 5.00893,3.13133 9.74335,6.68635 14.42501,10.28249 4.82128,3.98643 17.29608,13.62847 21.55922,18.21829 3.08646,3.32297 5.72327,6.61771 8.61777,10.11577 1.47276,1.91583 3.0643,3.74596 4.41829,5.74751 3.51847,5.20121 6.95311,11.73026 9.76184,17.27035 2.28859,4.51412 6.98138,14.3297 8.98992,19.1099 1.27457,3.03339 2.36944,6.13921 3.55416,9.20881 4.22512,11.88031 6.70584,24.33366 7.74983,36.89025 0.5352,6.43722 0.4926,10.52907 0.58588,16.90624 -0.10288,7.57215 -0.11766,15.1914 -1.61733,22.64412 -0.89466,4.44607 -1.54305,6.44216 -2.77347,10.84273 -2.83214,9.53229 -6.43652,18.81721 -10.74961,27.77256 -3.20276,6.18095 -6.6256,12.34357 -10.85948,17.89467 -1.22039,1.60008 -2.53954,3.12236 -3.80931,4.68354 -7.99881,8.99165 -16.34902,17.82039 -25.72977,25.4034 -1.91599,1.54881 -3.92153,2.98344 -5.88229,4.47516 -5.35524,3.85769 -10.89771,7.45962 -16.61085,10.76503 -9.88113,5.71686 -18.94525,11.48182 -29.22011,15.97386 -8.39863,3.54904 -17.1771,6.00876 -26.08195,7.88543 -8.12201,1.34009 -16.31025,2.42763 -24.5622,2.15044 -6.71447,-0.22555 -12.28556,-0.926 -18.99097,-1.61925 -14.90097,-1.81849 -29.68403,-4.73787 -44.13619,-8.80088 -7.31152,-2.07521 -13.86486,-5.84704 -20.3437,-9.70609 -7.71289,-4.32202 -14.47076,-9.94265 -20.92019,-15.93333 -7.64486,-7.24611 -14.92913,-14.86293 -22.0521,-22.61939 -4.86815,-7.08463 -9.58045,-14.31747 -13.30376,-22.08497 -0.9521,-1.98627 -1.78725,-4.02651 -2.68088,-6.03976 -4.43914,-10.99968 -8.4408,-22.25626 -10.87088,-33.89153 -0.47622,-2.28017 -0.82495,-4.58512 -1.23743,-6.87768 -1.43249,-10.02876 -1.66509,-20.1551 -1.38843,-30.26645 0.0615,-2.24843 0.10114,-4.50037 0.29251,-6.74149 0.20683,-2.42223 0.60074,-4.82483 0.90111,-7.23725 2.47873,-15.32151 7.74648,-29.92063 13.43593,-44.28992 4.67384,-14.30292 14.72976,-25.56141 23.86713,-35.7329 5.24951,-5.87918 10.88561,-11.39102 16.82261,-16.5698 4.5919,-4.14722 9.96194,-7.89639 15.20908,-11.12344 10.17943,-7.15524 21.03386,-12.1212 32.13112,-17.40511 4.55213,-2.01394 23.21459,-6.0352 27.91386,-7.6757 3.36686,-1.19985 14.28217,-2.74821 17.74469,-3.63172 2.32217,-0.60082 11.4053,-1.40433 13.74968,-1.91097 2.14097,-0.46152 4.30213,-0.82503 6.46114,-1.19153 1.47552,-0.27784 2.96486,-0.46488 4.45211,-0.66472 1.29708,-0.17247 2.60008,-0.28915 3.89894,-0.44657 l 0.54757,-0.0687 -12.2281,5.56575 0,0 -0.51701,0.0504 c -28.42277,4.12631 -48.64998,9.16599 -56.79197,12.79764 -12.90513,5.9733 -23.30413,10.02868 -33.85891,18.13453 -6.24059,5.13603 -12.15117,10.655 -17.61709,16.61555 -5.49642,5.99409 -11.03058,12.02378 -15.50398,18.84364 -3.35899,5.21628 -6.21071,10.73737 -8.8065,16.36897 -6.26064,14.08566 -11.68056,28.60698 -13.92944,43.94003 -1.72808,14.52001 -2.33325,29.19829 0.004,43.7042 2.49716,13.8328 6.06414,27.47286 11.97014,40.28649 4.64348,9.54963 9.68149,18.99605 16.4947,27.20741 6.48377,8.13488 13.46268,15.88934 21.29067,22.76376 6.69315,5.61153 13.66396,10.86521 21.19568,15.31641 6.36468,3.712 12.92801,7.09785 19.94962,9.40591 13.85163,4.57856 28.1146,7.84917 42.64162,9.37474 3.32353,0.27807 6.64017,0.65687 9.9706,0.83419 11.55705,0.61532 23.12249,-0.34295 34.44251,-2.72912 8.8281,-2.05156 17.57085,-4.53285 25.86853,-8.2359 1.37506,-0.64438 2.76354,-1.26088 4.12519,-1.93314 1.26246,-0.62329 4.944,-2.69131 3.74539,-1.95262 -3.97341,2.44876 -8.05996,4.70912 -12.07629,7.08684 -1.75658,1.03992 3.54832,-2.0201 5.29692,-3.07337 5.66434,-3.4119 6.16427,-3.85935 11.73462,-7.62672 1.93701,-1.44174 3.91544,-2.82944 5.81103,-4.32521 9.36113,-7.38668 17.80337,-15.94341 25.58904,-24.94893 5.44645,-6.90211 10.45401,-14.13883 14.42796,-22.00602 4.4772,-8.89375 8.42451,-18.05736 11.27172,-27.61541 1.25591,-4.49575 1.78306,-6.06347 2.70453,-10.58979 1.52301,-7.48116 2.16566,-15.11949 2.52794,-22.73316 0.10426,-7.16095 0.28348,-9.57989 -0.22529,-16.87164 -0.86898,-12.45461 -3.30167,-24.75759 -7.35115,-36.57208 -1.13788,-3.05801 -2.19627,-6.14679 -3.41365,-9.17403 -5.93469,-14.75775 -13.411,-28.99747 -23.71939,-41.19318 -6.97131,-8.02829 -22.14961,-21.16573 -30.75348,-27.47501 -4.73175,-3.52871 -9.56269,-6.93011 -14.71107,-9.83219 -2.6219,-1.5236 -5.28415,-2.97112 -7.99315,-4.33449 -2.95909,-1.48471 -5.9719,-2.86647 -9.00785,-4.18643 -5.51136,-2.30031 -11.12587,-4.36722 -16.86161,-6.03943 -4.16358,-1.10863 -8.33256,-2.22738 -12.57735,-2.98667 l 17.08556,-11.83678 z"
           inkscape:connector-curvature="0"
           sodipodi:nodetypes="ccccccscssscscsccscscsccscccccscscsscccccccccccccccccccccccccccccsccsssscscccscscsccccccccc" />
        <path
           style="opacity:1;fill:#f9fbe7;fill-opacity:1;stroke:none;stroke-width:2;stroke-linecap:round;stroke-linejoin:round;stroke-miterlimit:4;stroke-dasharray:none;stroke-dashoffset:20;stroke-opacity:1"
           id="path5933"
           d="m 706.91785,513.96906 c 0.76069,-0.45102 4.278,-1.54329 4.72213,-0.77924 0.20754,0.35015 0.41301,0.70192 0.60353,1.06169 0.18844,0.33901 0.359,0.68758 0.53323,1.03401 0.40403,0.75626 0.7923,1.52065 1.19883,2.27548 0.84891,1.55906 1.78968,3.06476 2.73976,4.56342 0.80433,1.32134 1.65095,2.6163 2.42156,3.95783 0.97444,1.76316 2.03287,3.47574 3.10732,5.17899 1.33395,2.13422 2.84917,4.14063 4.39086,6.12666 1.45374,1.89182 3.00923,3.70308 4.60272,5.47782 1.25981,1.41824 2.58436,2.7766 3.93521,4.1077 1.22056,1.2104 2.47614,2.38574 3.73974,3.55097 2.15018,1.98909 4.46672,3.78322 6.81638,5.52756 2.6992,2.06244 5.58323,3.84942 8.50897,5.56714 2.80486,1.62102 5.70749,3.05479 8.66793,4.36615 2.88375,1.27832 5.84864,2.35315 8.84616,3.32913 3.26059,0.9473 6.52821,1.91788 9.86869,2.55095 2.99747,0.56806 4.47203,0.69512 7.50731,1.06331 5.92679,0.6241 11.88897,0.81945 17.84336,0.64503 3.29569,-0.20542 6.6137,-0.42853 9.85895,-1.07709 2.67679,-0.53496 3.77368,-0.90816 6.43805,-1.66749 5.41027,-1.55889 11.63506,-3.27341 16.68415,-5.73821 1.53126,-0.7803 1.89353,-0.95307 3.37175,-1.75062 0.52099,-0.28108 2.06482,-1.1585 1.5564,-0.85528 -9.17414,5.47147 -0.059,-0.0731 1.39249,-0.97575 4.0023,-2.53635 6.51138,-3.95747 10.38915,-6.67965 2.20196,-1.53657 5.3388,-3.54425 7.38077,-5.2876 5.79989,-4.95172 7.58943,-6.92424 11.07603,-10.48634 5.10777,-5.21838 9.95279,-14.0089 13.44518,-17.59694 1.48921,-1.53 5.83666,-0.9785 4.91394,0.94692 -0.5956,1.2428 -7.29863,11.53991 -12.18926,16.83479 -1.21822,1.2756 -2.13933,2.27881 -3.4179,3.47476 -2.43392,2.27666 -4.39438,3.69013 -7.54831,6.56246 -5.73039,5.21875 -12.88205,10.70864 -18.179,14.23499 -5.74682,3.6477 -11.57061,7.58518 -17.70584,10.54684 -4.9882,2.34758 -10.05765,3.35419 -15.38641,4.81413 -2.4686,0.70056 -4.54246,0.6076 -7.04558,1.12553 -3.26633,0.67585 -6.6095,0.85672 -9.9316,1.01982 -0.87037,0.0253 -1.74039,0.0704 -2.61111,0.0758 -5.01483,0.0308 -10.01637,-0.55473 -15.00166,-1.00799 -3.67519,-0.45621 -7.39357,-0.83801 -11.02523,-1.58458 -2.29824,-0.47245 -4.52111,-1.28497 -6.79135,-1.8644 -3.09841,-0.90039 -6.1802,-1.84787 -9.08444,-3.278 -2.9249,-1.38594 -5.84437,-2.79952 -8.6082,-4.49067 -2.95314,-1.74564 -5.90726,-3.52166 -8.66774,-5.56111 -2.33452,-1.80206 -4.63178,-3.65262 -6.89677,-5.54123 -1.33034,-1.13209 -2.65714,-2.26693 -3.8653,-3.53221 -1.30938,-1.37882 -2.60011,-2.77532 -3.86758,-4.1928 -1.57512,-1.81152 -3.12829,-3.64154 -4.60738,-5.53303 -1.52633,-2.02014 -3.02915,-4.06474 -4.43875,-6.16722 -1.10358,-1.69482 -2.15156,-3.42537 -3.21791,-5.14376 -0.80374,-1.31528 -1.54626,-2.66699 -2.37007,-3.97028 -0.92756,-1.52383 -1.89437,-3.0233 -2.81557,-4.55088 -0.44555,-0.73958 -0.89673,-1.47468 -1.30013,-2.23868 -0.1925,-0.33669 -0.38711,-0.67246 -0.56321,-1.01813 -0.193,-0.3572 -0.37319,-0.72127 -0.55393,-1.08477 -0.39932,-0.78906 -1.2493,-3.39452 -1.01278,-4.24717 0.35323,-1.27341 1.63454,-1.81762 2.14246,-2.11876 z"
           inkscape:connector-curvature="0"
           sodipodi:nodetypes="scccccccccccccccsccscccsccsssscsscccscccscccccccccccccccss" />
        <path
           style="opacity:1;fill:#f9fbe7;fill-opacity:1;stroke:none;stroke-width:2;stroke-linecap:round;stroke-linejoin:round;stroke-miterlimit:4;stroke-dasharray:none;stroke-dashoffset:20;stroke-opacity:1"
           id="path5941"
           d="m 764.96954,422.29157 c 2.77302,-0.28169 2.7661,1.15204 2.42808,2.91046 -0.89902,3.60165 -1.42291,7.12174 -1.84861,10.61947 -0.18034,1.55456 -0.32472,3.10076 -0.52426,4.65973 -0.41043,1.9449 -0.83213,3.89075 -1.12072,5.80965 -0.1566,1.39803 -0.31447,2.79571 -0.53439,4.20813 -0.1688,1.1019 -0.31648,2.19929 -0.56755,3.31911 -0.49747,3.87645 -0.32444,6.39486 -1.90292,8.98075 -1.63604,2.68016 -9.63812,7.15429 -13.88156,7.1384 -1.1177,-1.98114 -0.31567,-4.98869 -0.15703,-7.24303 0.10306,-1.07964 0.3163,-2.18439 0.50241,-3.28287 0.24603,-1.45561 0.55611,-2.92455 0.86787,-4.39444 0.33384,-1.88751 0.53961,-3.74398 0.74901,-5.60278 0.32667,-1.64671 0.70926,-3.3053 1.05656,-4.95638 0.72728,-3.54041 1.37863,-7.06472 1.63134,-10.49878 0.23224,-1.69096 -0.15076,-3.66022 2.12945,-5.70429 2.43447,-2.18239 6.93133,-5.53239 11.17232,-5.96313 z"
           inkscape:connector-curvature="0"
           sodipodi:nodetypes="accccccscccccccaa" />
        <path
           sodipodi:nodetypes="accccccscccccccaa"
           inkscape:connector-curvature="0"
           d="m 851.94367,418.75604 c 2.77302,-0.28169 2.7661,1.15204 2.42808,2.91046 -0.89902,3.60165 -1.42291,7.12174 -1.84861,10.61947 -0.18034,1.55456 -0.32472,3.10076 -0.52426,4.65973 -0.41043,1.9449 -0.83213,3.89075 -1.12072,5.80965 -0.1566,1.39803 -0.31447,2.79571 -0.53439,4.20813 -0.1688,1.1019 -0.31648,2.19929 -0.56755,3.31911 -0.49747,3.87645 -0.32444,6.39486 -1.90292,8.98075 -1.63604,2.68016 -9.63812,7.15429 -13.88156,7.1384 -1.1177,-1.98114 -0.31567,-4.98869 -0.15703,-7.24303 0.10306,-1.07964 0.3163,-2.18439 0.50241,-3.28287 0.24603,-1.45561 0.55611,-2.92455 0.86787,-4.39444 0.33384,-1.88751 0.53961,-3.74398 0.74901,-5.60278 0.32667,-1.64671 0.70926,-3.3053 1.05656,-4.95638 0.72728,-3.54041 1.37863,-7.06472 1.63134,-10.49878 0.23224,-1.69096 -0.15076,-3.66022 2.12945,-5.70429 2.43447,-2.18239 6.93133,-5.53239 11.17232,-5.96313 z"
           id="path5947"
           style="opacity:1;fill:#f9fbe7;fill-opacity:1;stroke:none;stroke-width:2;stroke-linecap:round;stroke-linejoin:round;stroke-miterlimit:4;stroke-dasharray:none;stroke-dashoffset:20;stroke-opacity:1" />
      </g>
    </g>
  </g>
  <g
     inkscape:groupmode="layer"
     id="layer4"
     inkscape:label="Trace"
     style="display:inline"
     transform="translate(0,-88)" />
</svg>
